<mxfile host="app.diagrams.net" agent="Mozilla/5.0 (Macintosh; Intel Mac OS X 10_15_7) AppleWebKit/537.36 (KHTML, like Gecko) Chrome/128.0.0.0 Safari/537.36" version="24.7.10">
  <diagram name="Page-1" id="0783ab3e-0a74-02c8-0abd-f7b4e66b4bec">
    <mxGraphModel dx="1424" dy="964" grid="1" gridSize="10" guides="1" tooltips="1" connect="1" arrows="1" fold="1" page="1" pageScale="1" pageWidth="850" pageHeight="1100" background="#ffffff" math="0" shadow="0">
      <root>
        <mxCell id="0" />
        <mxCell id="1" parent="0" />
        <mxCell id="V6kkqUvpd2kyLeAWoMDx-1" value="" style="shape=or;whiteSpace=wrap;html=1;fillColor=#FF9933;fillStyle=zigzag-line;opacity=60;strokeWidth=2;" vertex="1" parent="1">
          <mxGeometry x="450" y="1430" width="240" height="350" as="geometry" />
        </mxCell>
        <mxCell id="1c1d494c118603dd-1" value="&lt;font style=&quot;font-size: 29px;&quot;&gt;mtanh package&lt;/font&gt;" style="swimlane;html=1;childLayout=stackLayout;startSize=60;rounded=0;shadow=0;comic=0;labelBackgroundColor=none;strokeWidth=1;fontFamily=Times New Roman;fontSize=29;align=center;" parent="1" vertex="1">
          <mxGeometry x="70" y="60" width="1000" height="1070" as="geometry" />
        </mxCell>
        <mxCell id="1c1d494c118603dd-3" value="&lt;font style=&quot;font-size: 22px;&quot;&gt;First level&lt;/font&gt;" style="swimlane;html=1;startSize=40;fontFamily=Times New Roman;fontSize=22;" parent="1c1d494c118603dd-1" vertex="1">
          <mxGeometry y="60" width="290" height="1010" as="geometry" />
        </mxCell>
        <mxCell id="UKQ700S80o_2FQXmhF7d-37" value="initialization" style="edgeStyle=orthogonalEdgeStyle;rounded=0;orthogonalLoop=1;jettySize=auto;html=1;fontFamily=Times New Roman;" parent="1c1d494c118603dd-3" source="UKQ700S80o_2FQXmhF7d-15" edge="1">
          <mxGeometry relative="1" as="geometry">
            <mxPoint x="143" y="450" as="targetPoint" />
          </mxGeometry>
        </mxCell>
        <mxCell id="UKQ700S80o_2FQXmhF7d-15" value="&lt;font color=&quot;#131300&quot; style=&quot;forced-color-adjust: none; font-style: normal; font-variant-ligatures: normal; font-variant-caps: normal; font-weight: 400; letter-spacing: normal; orphans: 2; text-align: center; text-indent: 0px; text-transform: none; widows: 2; word-spacing: 0px; -webkit-text-stroke-width: 0px; white-space: normal; text-decoration-thickness: initial; text-decoration-style: initial; text-decoration-color: initial;&quot; size=&quot;1&quot;&gt;&lt;span style=&quot;forced-color-adjust: none; caret-color: rgb(19, 19, 0); text-wrap: nowrap;&quot;&gt;&lt;b style=&quot;forced-color-adjust: none; font-size: 16px;&quot;&gt;pedestal_ts_default&lt;/b&gt;&lt;/span&gt;&lt;/font&gt;" style="swimlane;fontStyle=0;childLayout=stackLayout;horizontal=1;startSize=30;horizontalStack=0;resizeParent=1;resizeParentMax=0;resizeLast=0;collapsible=1;marginBottom=0;whiteSpace=wrap;html=1;fillColor=#dae8fc;strokeColor=#6c8ebf;fontFamily=Times New Roman;" parent="1c1d494c118603dd-3" vertex="1">
          <mxGeometry x="42.5" y="70" width="200" height="140" as="geometry" />
        </mxCell>
        <mxCell id="UKQ700S80o_2FQXmhF7d-16" value="&lt;span style=&quot;caret-color: rgb(19, 19, 0); color: rgb(19, 19, 0); text-wrap: nowrap; background-color: rgb(255, 255, 255); font-size: 14px;&quot;&gt;&lt;font style=&quot;font-size: 14px;&quot;&gt;input : None&lt;/font&gt;&lt;/span&gt;" style="text;strokeColor=default;fillColor=none;align=left;verticalAlign=middle;spacingLeft=4;spacingRight=4;overflow=hidden;points=[[0,0.5],[1,0.5]];portConstraint=eastwest;rotatable=0;whiteSpace=wrap;html=1;fontFamily=Times New Roman;fontSize=14;" parent="UKQ700S80o_2FQXmhF7d-15" vertex="1">
          <mxGeometry y="30" width="200" height="30" as="geometry" />
        </mxCell>
        <mxCell id="UKQ700S80o_2FQXmhF7d-17" value="&lt;div style=&quot;font-size: 14px;&quot;&gt;output : the initial parameters&lt;/div&gt;&lt;div style=&quot;font-size: 14px;&quot;&gt;&lt;/div&gt;&lt;div style=&quot;font-size: 14px;&quot;&gt;&lt;/div&gt;" style="text;strokeColor=default;fillColor=none;align=left;verticalAlign=middle;spacingLeft=4;spacingRight=4;overflow=hidden;points=[[0,0.5],[1,0.5]];portConstraint=eastwest;rotatable=0;whiteSpace=wrap;html=1;fontFamily=Times New Roman;fontSize=14;" parent="UKQ700S80o_2FQXmhF7d-15" vertex="1">
          <mxGeometry y="60" width="200" height="30" as="geometry" />
        </mxCell>
        <mxCell id="UKQ700S80o_2FQXmhF7d-18" value="&lt;div style=&quot;font-size: 14px;&quot;&gt;function: set parameters for fitting&lt;/div&gt;" style="text;strokeColor=default;fillColor=none;align=left;verticalAlign=middle;spacingLeft=4;spacingRight=4;overflow=hidden;points=[[0,0.5],[1,0.5]];portConstraint=eastwest;rotatable=0;whiteSpace=wrap;html=1;fontFamily=Times New Roman;fontSize=14;" parent="UKQ700S80o_2FQXmhF7d-15" vertex="1">
          <mxGeometry y="90" width="200" height="50" as="geometry" />
        </mxCell>
        <mxCell id="UKQ700S80o_2FQXmhF7d-86" value="output can be loaded for" style="edgeStyle=orthogonalEdgeStyle;rounded=0;orthogonalLoop=1;jettySize=auto;html=1;fontFamily=Times New Roman;" parent="1c1d494c118603dd-3" source="UKQ700S80o_2FQXmhF7d-19" target="UKQ700S80o_2FQXmhF7d-82" edge="1">
          <mxGeometry relative="1" as="geometry" />
        </mxCell>
        <mxCell id="UKQ700S80o_2FQXmhF7d-19" value="&lt;font color=&quot;#131300&quot; style=&quot;forced-color-adjust: none; orphans: 2; text-align: center; text-indent: 0px; widows: 2; text-decoration-thickness: initial; text-decoration-style: initial; text-decoration-color: initial;&quot; size=&quot;1&quot;&gt;&lt;span style=&quot;forced-color-adjust: none;&quot;&gt;&lt;span style=&quot;forced-color-adjust: none;&quot;&gt;&lt;span style=&quot;text-wrap: nowrap;&quot;&gt;&lt;b style=&quot;font-size: 16px;&quot;&gt;pedestal_ts_fit&lt;/b&gt;&lt;/span&gt;&lt;/span&gt;&lt;/span&gt;&lt;/font&gt;" style="swimlane;fontStyle=0;childLayout=stackLayout;horizontal=1;startSize=30;horizontalStack=0;resizeParent=1;resizeParentMax=0;resizeLast=0;collapsible=1;marginBottom=0;whiteSpace=wrap;html=1;fillColor=#ffe6cc;strokeColor=#d79b00;fontFamily=Times New Roman;" parent="1c1d494c118603dd-3" vertex="1">
          <mxGeometry x="21.25" y="460" width="242.5" height="150" as="geometry" />
        </mxCell>
        <mxCell id="UKQ700S80o_2FQXmhF7d-20" value="&lt;span style=&quot;caret-color: rgb(19, 19, 0); color: rgb(19, 19, 0); text-wrap: nowrap; background-color: rgb(255, 255, 255); font-size: 14px;&quot;&gt;&lt;font style=&quot;font-size: 14px;&quot;&gt;input :&amp;nbsp;&lt;/font&gt;&lt;/span&gt;&lt;font style=&quot;font-size: 14px;&quot; color=&quot;#131300&quot;&gt;&lt;span style=&quot;caret-color: rgb(19, 19, 0); text-wrap: nowrap; font-size: 14px;&quot;&gt;shot, time window, parameters&lt;/span&gt;&lt;/font&gt;" style="text;strokeColor=default;fillColor=none;align=left;verticalAlign=middle;spacingLeft=4;spacingRight=4;overflow=hidden;points=[[0,0.5],[1,0.5]];portConstraint=eastwest;rotatable=0;whiteSpace=wrap;html=1;fontFamily=Times New Roman;fontSize=14;" parent="UKQ700S80o_2FQXmhF7d-19" vertex="1">
          <mxGeometry y="30" width="242.5" height="30" as="geometry" />
        </mxCell>
        <mxCell id="UKQ700S80o_2FQXmhF7d-21" value="&lt;div style=&quot;font-size: 14px;&quot;&gt;output :&amp;nbsp;&lt;span style=&quot;background-color: initial; font-size: 14px;&quot;&gt;T, Rho, P profiles after fitting&lt;/span&gt;&lt;/div&gt;&lt;div style=&quot;font-size: 14px;&quot;&gt;with fitting parameters&lt;/div&gt;&lt;div style=&quot;font-size: 14px;&quot;&gt;&lt;/div&gt;&lt;div style=&quot;font-size: 14px;&quot;&gt;&lt;/div&gt;" style="text;strokeColor=default;fillColor=none;align=left;verticalAlign=middle;spacingLeft=4;spacingRight=4;overflow=hidden;points=[[0,0.5],[1,0.5]];portConstraint=eastwest;rotatable=0;whiteSpace=wrap;html=1;fontFamily=Times New Roman;fontSize=14;" parent="UKQ700S80o_2FQXmhF7d-19" vertex="1">
          <mxGeometry y="60" width="242.5" height="50" as="geometry" />
        </mxCell>
        <mxCell id="UKQ700S80o_2FQXmhF7d-22" value="&lt;div style=&quot;font-size: 14px;&quot;&gt;function: main funtion（with extra fitting）&lt;/div&gt;" style="text;strokeColor=default;fillColor=none;align=left;verticalAlign=middle;spacingLeft=4;spacingRight=4;overflow=hidden;points=[[0,0.5],[1,0.5]];portConstraint=eastwest;rotatable=0;whiteSpace=wrap;html=1;fontFamily=Times New Roman;fontSize=14;" parent="UKQ700S80o_2FQXmhF7d-19" vertex="1">
          <mxGeometry y="110" width="242.5" height="40" as="geometry" />
        </mxCell>
        <mxCell id="UKQ700S80o_2FQXmhF7d-82" value="&lt;font color=&quot;#131300&quot; size=&quot;1&quot;&gt;&lt;span style=&quot;text-wrap: nowrap;&quot;&gt;&lt;b style=&quot;font-size: 16px;&quot;&gt;pedestal_ts_plot&lt;/b&gt;&lt;/span&gt;&lt;/font&gt;" style="swimlane;fontStyle=0;childLayout=stackLayout;horizontal=1;startSize=30;horizontalStack=0;resizeParent=1;resizeParentMax=0;resizeLast=0;collapsible=1;marginBottom=0;whiteSpace=wrap;html=1;fillColor=#d5e8d4;strokeColor=#82b366;fontFamily=Times New Roman;" parent="1c1d494c118603dd-3" vertex="1">
          <mxGeometry x="13.13" y="830" width="258.75" height="150" as="geometry" />
        </mxCell>
        <mxCell id="UKQ700S80o_2FQXmhF7d-83" value="&lt;div style=&quot;font-size: 14px;&quot;&gt;&lt;font style=&quot;font-size: 14px;&quot; color=&quot;#131300&quot;&gt;&lt;span style=&quot;caret-color: rgb(19, 19, 0); text-wrap: nowrap; font-size: 14px;&quot;&gt;input : the data from &quot;load expfit_xxx.mat&quot;&lt;/span&gt;&lt;/font&gt;&lt;/div&gt;" style="text;strokeColor=default;fillColor=none;align=left;verticalAlign=middle;spacingLeft=4;spacingRight=4;overflow=hidden;points=[[0,0.5],[1,0.5]];portConstraint=eastwest;rotatable=0;whiteSpace=wrap;html=1;fontFamily=Times New Roman;fontSize=14;" parent="UKQ700S80o_2FQXmhF7d-82" vertex="1">
          <mxGeometry y="30" width="258.75" height="40" as="geometry" />
        </mxCell>
        <mxCell id="UKQ700S80o_2FQXmhF7d-85" value="&lt;div style=&quot;font-size: 14px;&quot;&gt;function: get the fitting picture&lt;/div&gt;" style="text;strokeColor=default;fillColor=none;align=left;verticalAlign=middle;spacingLeft=4;spacingRight=4;overflow=hidden;points=[[0,0.5],[1,0.5]];portConstraint=eastwest;rotatable=0;whiteSpace=wrap;html=1;fontFamily=Times New Roman;fontSize=14;" parent="UKQ700S80o_2FQXmhF7d-82" vertex="1">
          <mxGeometry y="70" width="258.75" height="30" as="geometry" />
        </mxCell>
        <mxCell id="UKQ700S80o_2FQXmhF7d-84" value="&lt;div style=&quot;font-size: 14px;&quot;&gt;&lt;div style=&quot;font-size: 14px;&quot;&gt;output : the fitting picture for tempreture and rho&lt;/div&gt;&lt;/div&gt;&lt;div style=&quot;font-size: 14px;&quot;&gt;&lt;/div&gt;&lt;div style=&quot;font-size: 14px;&quot;&gt;&lt;/div&gt;" style="text;strokeColor=default;fillColor=none;align=left;verticalAlign=middle;spacingLeft=4;spacingRight=4;overflow=hidden;points=[[0,0.5],[1,0.5]];portConstraint=eastwest;rotatable=0;whiteSpace=wrap;html=1;fontFamily=Times New Roman;fontSize=14;" parent="UKQ700S80o_2FQXmhF7d-82" vertex="1">
          <mxGeometry y="100" width="258.75" height="50" as="geometry" />
        </mxCell>
        <mxCell id="UKQ700S80o_2FQXmhF7d-118" style="edgeStyle=orthogonalEdgeStyle;rounded=0;orthogonalLoop=1;jettySize=auto;html=1;exitX=1;exitY=0.5;exitDx=0;exitDy=0;" parent="UKQ700S80o_2FQXmhF7d-82" source="UKQ700S80o_2FQXmhF7d-85" target="UKQ700S80o_2FQXmhF7d-85" edge="1">
          <mxGeometry relative="1" as="geometry" />
        </mxCell>
        <mxCell id="UKQ700S80o_2FQXmhF7d-11" value="&lt;font style=&quot;font-size: 22px;&quot;&gt;Second level&lt;/font&gt;" style="swimlane;html=1;startSize=40;fontFamily=Times New Roman;fontSize=22;" parent="1c1d494c118603dd-1" vertex="1">
          <mxGeometry x="290" y="60" width="320" height="1010" as="geometry" />
        </mxCell>
        <mxCell id="UKQ700S80o_2FQXmhF7d-51" value="&lt;font color=&quot;#131300&quot; size=&quot;1&quot;&gt;&lt;span style=&quot;text-wrap: nowrap;&quot;&gt;&lt;b style=&quot;font-size: 16px;&quot;&gt;pedestal_ts_mtanhfit&lt;/b&gt;&lt;/span&gt;&lt;/font&gt;" style="swimlane;fontStyle=0;childLayout=stackLayout;horizontal=1;startSize=30;horizontalStack=0;resizeParent=1;resizeParentMax=0;resizeLast=0;collapsible=1;marginBottom=0;whiteSpace=wrap;html=1;fillColor=#ffe6cc;strokeColor=#d79b00;fontFamily=Times New Roman;" parent="UKQ700S80o_2FQXmhF7d-11" vertex="1">
          <mxGeometry x="23.44" y="440" width="273.12" height="180" as="geometry" />
        </mxCell>
        <mxCell id="UKQ700S80o_2FQXmhF7d-52" value="&lt;div&gt;&lt;font size=&quot;1&quot; color=&quot;#131300&quot;&gt;&lt;span style=&quot;caret-color: rgb(19, 19, 0); text-wrap: nowrap; font-size: 14px;&quot;&gt;input : shot, time window, elmcycle，&lt;/span&gt;&lt;/font&gt;&lt;/div&gt;&lt;div&gt;&lt;font size=&quot;1&quot; color=&quot;#131300&quot;&gt;&lt;span style=&quot;caret-color: rgb(19, 19, 0); text-wrap: nowrap; font-size: 14px;&quot;&gt;parameter&lt;/span&gt;&lt;/font&gt;&lt;/div&gt;" style="text;strokeColor=default;fillColor=none;align=left;verticalAlign=middle;spacingLeft=4;spacingRight=4;overflow=hidden;points=[[0,0.5],[1,0.5]];portConstraint=eastwest;rotatable=0;whiteSpace=wrap;html=1;fontFamily=Times New Roman;" parent="UKQ700S80o_2FQXmhF7d-51" vertex="1">
          <mxGeometry y="30" width="273.12" height="50" as="geometry" />
        </mxCell>
        <mxCell id="UKQ700S80o_2FQXmhF7d-53" value="&lt;div&gt;&lt;div&gt;&lt;font style=&quot;font-size: 14px;&quot;&gt;output : data after fitting and fitting pictures&lt;/font&gt;&lt;/div&gt;&lt;/div&gt;&lt;div&gt;&lt;/div&gt;&lt;div&gt;&lt;/div&gt;" style="text;strokeColor=default;fillColor=none;align=left;verticalAlign=middle;spacingLeft=4;spacingRight=4;overflow=hidden;points=[[0,0.5],[1,0.5]];portConstraint=eastwest;rotatable=0;whiteSpace=wrap;html=1;fontFamily=Times New Roman;" parent="UKQ700S80o_2FQXmhF7d-51" vertex="1">
          <mxGeometry y="80" width="273.12" height="50" as="geometry" />
        </mxCell>
        <mxCell id="UKQ700S80o_2FQXmhF7d-54" value="&lt;div&gt;&lt;font style=&quot;font-size: 14px;&quot;&gt;function: Filter the data and perform mtanh fitting&lt;/font&gt;&lt;/div&gt;" style="text;strokeColor=default;fillColor=none;align=left;verticalAlign=middle;spacingLeft=4;spacingRight=4;overflow=hidden;points=[[0,0.5],[1,0.5]];portConstraint=eastwest;rotatable=0;whiteSpace=wrap;html=1;fontFamily=Times New Roman;" parent="UKQ700S80o_2FQXmhF7d-51" vertex="1">
          <mxGeometry y="130" width="273.12" height="50" as="geometry" />
        </mxCell>
        <mxCell id="UKQ700S80o_2FQXmhF7d-87" value="call" style="edgeStyle=orthogonalEdgeStyle;rounded=0;orthogonalLoop=1;jettySize=auto;html=1;exitX=1;exitY=0.5;exitDx=0;exitDy=0;entryX=0;entryY=0.5;entryDx=0;entryDy=0;fillColor=#f8cecc;strokeColor=#FF3333;strokeWidth=2;fontSize=12;fontStyle=1;fontFamily=Times New Roman;" parent="1c1d494c118603dd-1" source="UKQ700S80o_2FQXmhF7d-21" target="UKQ700S80o_2FQXmhF7d-53" edge="1">
          <mxGeometry relative="1" as="geometry" />
        </mxCell>
        <mxCell id="UKQ700S80o_2FQXmhF7d-12" value="&lt;font style=&quot;font-size: 22px;&quot;&gt;Third level&lt;/font&gt;" style="swimlane;html=1;startSize=40;fontFamily=Times New Roman;fontSize=22;" parent="1c1d494c118603dd-1" vertex="1">
          <mxGeometry x="610" y="60" width="390" height="1010" as="geometry" />
        </mxCell>
        <mxCell id="UKQ700S80o_2FQXmhF7d-97" value="&lt;font color=&quot;#131300&quot; size=&quot;1&quot;&gt;&lt;span style=&quot;text-wrap: nowrap;&quot;&gt;&lt;b style=&quot;font-size: 16px;&quot;&gt;Elmyfreq&lt;/b&gt;&lt;/span&gt;&lt;/font&gt;" style="swimlane;fontStyle=0;childLayout=stackLayout;horizontal=1;startSize=30;horizontalStack=0;resizeParent=1;resizeParentMax=0;resizeLast=0;collapsible=1;marginBottom=0;whiteSpace=wrap;html=1;fillColor=#ffe6cc;strokeColor=#d79b00;fontFamily=Times New Roman;" parent="UKQ700S80o_2FQXmhF7d-12" vertex="1">
          <mxGeometry x="73.44" y="170" width="286.56" height="140" as="geometry" />
        </mxCell>
        <mxCell id="UKQ700S80o_2FQXmhF7d-98" value="&lt;div style=&quot;font-size: 14px;&quot;&gt;&lt;font style=&quot;font-size: 14px;&quot; color=&quot;#131300&quot;&gt;&lt;span style=&quot;caret-color: rgb(19, 19, 0); text-wrap: nowrap; font-size: 14px;&quot;&gt;input : shot, time window,plot or not, level,tlag&lt;/span&gt;&lt;/font&gt;&lt;/div&gt;" style="text;strokeColor=default;fillColor=none;align=left;verticalAlign=middle;spacingLeft=4;spacingRight=4;overflow=hidden;points=[[0,0.5],[1,0.5]];portConstraint=eastwest;rotatable=0;whiteSpace=wrap;html=1;fontFamily=Times New Roman;fontSize=14;" parent="UKQ700S80o_2FQXmhF7d-97" vertex="1">
          <mxGeometry y="30" width="286.56" height="30" as="geometry" />
        </mxCell>
        <mxCell id="UKQ700S80o_2FQXmhF7d-99" value="&lt;div&gt;&lt;div&gt;&lt;font style=&quot;font-size: 14px;&quot;&gt;output : Elm information&lt;/font&gt;&lt;/div&gt;&lt;/div&gt;&lt;div&gt;&lt;/div&gt;&lt;div&gt;&lt;/div&gt;" style="text;strokeColor=default;fillColor=none;align=left;verticalAlign=middle;spacingLeft=4;spacingRight=4;overflow=hidden;points=[[0,0.5],[1,0.5]];portConstraint=eastwest;rotatable=0;whiteSpace=wrap;html=1;fontFamily=Times New Roman;" parent="UKQ700S80o_2FQXmhF7d-97" vertex="1">
          <mxGeometry y="60" width="286.56" height="50" as="geometry" />
        </mxCell>
        <mxCell id="UKQ700S80o_2FQXmhF7d-100" value="&lt;div&gt;&lt;font style=&quot;font-size: 14px;&quot;&gt;function: gets ELM times and frequencies&lt;/font&gt;&lt;/div&gt;" style="text;strokeColor=default;fillColor=none;align=left;verticalAlign=middle;spacingLeft=4;spacingRight=4;overflow=hidden;points=[[0,0.5],[1,0.5]];portConstraint=eastwest;rotatable=0;whiteSpace=wrap;html=1;fontFamily=Times New Roman;" parent="UKQ700S80o_2FQXmhF7d-97" vertex="1">
          <mxGeometry y="110" width="286.56" height="30" as="geometry" />
        </mxCell>
        <mxCell id="UKQ700S80o_2FQXmhF7d-105" value="&lt;div&gt;&lt;font color=&quot;#131300&quot; size=&quot;1&quot;&gt;&lt;span style=&quot;text-wrap: nowrap;&quot;&gt;&lt;b style=&quot;font-size: 16px;&quot;&gt;mtanh_ped&lt;/b&gt;&lt;/span&gt;&lt;/font&gt;&lt;/div&gt;" style="swimlane;fontStyle=0;childLayout=stackLayout;horizontal=1;startSize=30;horizontalStack=0;resizeParent=1;resizeParentMax=0;resizeLast=0;collapsible=1;marginBottom=0;whiteSpace=wrap;html=1;fillColor=#ffe6cc;strokeColor=#d79b00;fontFamily=Times New Roman;" parent="UKQ700S80o_2FQXmhF7d-12" vertex="1">
          <mxGeometry x="73.44" y="730" width="286.56" height="180" as="geometry" />
        </mxCell>
        <mxCell id="UKQ700S80o_2FQXmhF7d-106" value="&lt;div style=&quot;font-size: 14px;&quot;&gt;&lt;font style=&quot;font-size: 14px;&quot; color=&quot;#131300&quot;&gt;&lt;span style=&quot;caret-color: rgb(19, 19, 0); text-wrap: nowrap; font-size: 14px;&quot;&gt;input : [5 tanh fitting parameters],&lt;/span&gt;&lt;/font&gt;&lt;/div&gt;&lt;div style=&quot;font-size: 14px;&quot;&gt;&lt;font style=&quot;font-size: 14px;&quot; color=&quot;#131300&quot;&gt;&lt;span style=&quot;caret-color: rgb(19, 19, 0); text-wrap: nowrap; font-size: 14px;&quot;&gt;s (sqrt(psi_norm))&lt;/span&gt;&lt;/font&gt;&lt;/div&gt;" style="text;strokeColor=default;fillColor=none;align=left;verticalAlign=middle;spacingLeft=4;spacingRight=4;overflow=hidden;points=[[0,0.5],[1,0.5]];portConstraint=eastwest;rotatable=0;whiteSpace=wrap;html=1;fontFamily=Times New Roman;fontSize=14;" parent="UKQ700S80o_2FQXmhF7d-105" vertex="1">
          <mxGeometry y="30" width="286.56" height="50" as="geometry" />
        </mxCell>
        <mxCell id="UKQ700S80o_2FQXmhF7d-107" value="&lt;div style=&quot;font-size: 14px;&quot;&gt;&lt;div style=&quot;font-size: 14px;&quot;&gt;output : fitting function, Jacobian, 1st &amp;amp;2nd derivative&lt;/div&gt;&lt;/div&gt;&lt;div style=&quot;font-size: 14px;&quot;&gt;&lt;/div&gt;&lt;div style=&quot;font-size: 14px;&quot;&gt;&lt;/div&gt;" style="text;strokeColor=default;fillColor=none;align=left;verticalAlign=middle;spacingLeft=4;spacingRight=4;overflow=hidden;points=[[0,0.5],[1,0.5]];portConstraint=eastwest;rotatable=0;whiteSpace=wrap;html=1;fontFamily=Times New Roman;fontSize=14;" parent="UKQ700S80o_2FQXmhF7d-105" vertex="1">
          <mxGeometry y="80" width="286.56" height="50" as="geometry" />
        </mxCell>
        <mxCell id="UKQ700S80o_2FQXmhF7d-108" value="&lt;div style=&quot;font-size: 14px;&quot;&gt;function: modified tanh function used for pedestal fits&lt;/div&gt;" style="text;strokeColor=default;fillColor=none;align=left;verticalAlign=middle;spacingLeft=4;spacingRight=4;overflow=hidden;points=[[0,0.5],[1,0.5]];portConstraint=eastwest;rotatable=0;whiteSpace=wrap;html=1;fontFamily=Times New Roman;fontSize=14;" parent="UKQ700S80o_2FQXmhF7d-105" vertex="1">
          <mxGeometry y="130" width="286.56" height="50" as="geometry" />
        </mxCell>
        <mxCell id="UKQ700S80o_2FQXmhF7d-109" value="&lt;div&gt;&lt;font color=&quot;#131300&quot; size=&quot;1&quot;&gt;&lt;span style=&quot;text-wrap: nowrap;&quot;&gt;&lt;b style=&quot;font-size: 16px;&quot;&gt;detectOutliers&lt;/b&gt;&lt;/span&gt;&lt;/font&gt;&lt;/div&gt;" style="swimlane;fontStyle=0;childLayout=stackLayout;horizontal=1;startSize=30;horizontalStack=0;resizeParent=1;resizeParentMax=0;resizeLast=0;collapsible=1;marginBottom=0;whiteSpace=wrap;html=1;fillColor=#ffe6cc;strokeColor=#d79b00;fontFamily=Times New Roman;" parent="UKQ700S80o_2FQXmhF7d-12" vertex="1">
          <mxGeometry x="73.44" y="550" width="286.56" height="140" as="geometry" />
        </mxCell>
        <mxCell id="UKQ700S80o_2FQXmhF7d-110" value="&lt;div style=&quot;font-size: 14px;&quot;&gt;&lt;font style=&quot;font-size: 14px;&quot; color=&quot;#131300&quot;&gt;&lt;span style=&quot;caret-color: rgb(19, 19, 0); text-wrap: nowrap; font-size: 14px;&quot;&gt;output : the indices for the outliers&lt;/span&gt;&lt;/font&gt;&lt;/div&gt;" style="text;strokeColor=default;fillColor=none;align=left;verticalAlign=middle;spacingLeft=4;spacingRight=4;overflow=hidden;points=[[0,0.5],[1,0.5]];portConstraint=eastwest;rotatable=0;whiteSpace=wrap;html=1;fontFamily=Times New Roman;fontSize=14;" parent="UKQ700S80o_2FQXmhF7d-109" vertex="1">
          <mxGeometry y="30" width="286.56" height="30" as="geometry" />
        </mxCell>
        <mxCell id="UKQ700S80o_2FQXmhF7d-111" value="&lt;div style=&quot;font-size: 14px;&quot;&gt;&lt;div style=&quot;font-size: 14px;&quot;&gt;input : s (sqrt(psi_norm)) : ,tempreture&lt;/div&gt;&lt;/div&gt;&lt;div style=&quot;font-size: 14px;&quot;&gt;&lt;/div&gt;&lt;div style=&quot;font-size: 14px;&quot;&gt;&lt;/div&gt;" style="text;strokeColor=default;fillColor=none;align=left;verticalAlign=middle;spacingLeft=4;spacingRight=4;overflow=hidden;points=[[0,0.5],[1,0.5]];portConstraint=eastwest;rotatable=0;whiteSpace=wrap;html=1;fontFamily=Times New Roman;fontSize=14;" parent="UKQ700S80o_2FQXmhF7d-109" vertex="1">
          <mxGeometry y="60" width="286.56" height="50" as="geometry" />
        </mxCell>
        <mxCell id="UKQ700S80o_2FQXmhF7d-112" value="&lt;div style=&quot;font-size: 14px;&quot;&gt;function: identify outliers to delete them later&lt;/div&gt;" style="text;strokeColor=default;fillColor=none;align=left;verticalAlign=middle;spacingLeft=4;spacingRight=4;overflow=hidden;points=[[0,0.5],[1,0.5]];portConstraint=eastwest;rotatable=0;whiteSpace=wrap;html=1;fontFamily=Times New Roman;fontSize=14;" parent="UKQ700S80o_2FQXmhF7d-109" vertex="1">
          <mxGeometry y="110" width="286.56" height="30" as="geometry" />
        </mxCell>
        <mxCell id="UKQ700S80o_2FQXmhF7d-101" value="&lt;div&gt;&lt;font color=&quot;#131300&quot; size=&quot;1&quot;&gt;&lt;span style=&quot;text-wrap: nowrap;&quot;&gt;&lt;b style=&quot;font-size: 16px;&quot;&gt;dW_ELM_DML&lt;/b&gt;&lt;/span&gt;&lt;/font&gt;&lt;/div&gt;" style="swimlane;fontStyle=0;childLayout=stackLayout;horizontal=1;startSize=30;horizontalStack=0;resizeParent=1;resizeParentMax=0;resizeLast=0;collapsible=1;marginBottom=0;whiteSpace=wrap;html=1;fillColor=#ffe6cc;strokeColor=#d79b00;fontFamily=Times New Roman;" parent="UKQ700S80o_2FQXmhF7d-12" vertex="1">
          <mxGeometry x="73.44" y="360" width="286.56" height="140" as="geometry" />
        </mxCell>
        <mxCell id="UKQ700S80o_2FQXmhF7d-102" value="&lt;div&gt;&lt;font size=&quot;1&quot; color=&quot;#131300&quot;&gt;&lt;span style=&quot;caret-color: rgb(19, 19, 0); text-wrap: nowrap; font-size: 14px;&quot;&gt;input : shot,time window,plot or not&lt;/span&gt;&lt;/font&gt;&lt;/div&gt;" style="text;strokeColor=default;fillColor=none;align=left;verticalAlign=middle;spacingLeft=4;spacingRight=4;overflow=hidden;points=[[0,0.5],[1,0.5]];portConstraint=eastwest;rotatable=0;whiteSpace=wrap;html=1;fontFamily=Times New Roman;" parent="UKQ700S80o_2FQXmhF7d-101" vertex="1">
          <mxGeometry y="30" width="286.56" height="30" as="geometry" />
        </mxCell>
        <mxCell id="UKQ700S80o_2FQXmhF7d-103" value="&lt;div&gt;&lt;div&gt;&lt;font style=&quot;font-size: 14px;&quot;&gt;output : change and value of plasma energy&lt;/font&gt;&lt;/div&gt;&lt;/div&gt;&lt;div&gt;&lt;/div&gt;&lt;div&gt;&lt;/div&gt;" style="text;strokeColor=default;fillColor=none;align=left;verticalAlign=middle;spacingLeft=4;spacingRight=4;overflow=hidden;points=[[0,0.5],[1,0.5]];portConstraint=eastwest;rotatable=0;whiteSpace=wrap;html=1;fontFamily=Times New Roman;" parent="UKQ700S80o_2FQXmhF7d-101" vertex="1">
          <mxGeometry y="60" width="286.56" height="50" as="geometry" />
        </mxCell>
        <mxCell id="UKQ700S80o_2FQXmhF7d-104" value="&lt;div&gt;&lt;font style=&quot;font-size: 14px;&quot;&gt;function: get energy loss due to ELMs&lt;/font&gt;&lt;/div&gt;" style="text;strokeColor=default;fillColor=none;align=left;verticalAlign=middle;spacingLeft=4;spacingRight=4;overflow=hidden;points=[[0,0.5],[1,0.5]];portConstraint=eastwest;rotatable=0;whiteSpace=wrap;html=1;fontFamily=Times New Roman;" parent="UKQ700S80o_2FQXmhF7d-101" vertex="1">
          <mxGeometry y="110" width="286.56" height="30" as="geometry" />
        </mxCell>
        <mxCell id="UKQ700S80o_2FQXmhF7d-113" value="call" style="edgeStyle=orthogonalEdgeStyle;rounded=0;orthogonalLoop=1;jettySize=auto;html=1;exitX=1;exitY=0.5;exitDx=0;exitDy=0;entryX=0;entryY=0.5;entryDx=0;entryDy=0;strokeColor=#FF3333;strokeWidth=2;fontSize=12;fontStyle=1;fontFamily=Times New Roman;" parent="1c1d494c118603dd-1" source="UKQ700S80o_2FQXmhF7d-53" target="UKQ700S80o_2FQXmhF7d-99" edge="1">
          <mxGeometry relative="1" as="geometry" />
        </mxCell>
        <mxCell id="UKQ700S80o_2FQXmhF7d-114" value="call" style="edgeStyle=orthogonalEdgeStyle;rounded=0;orthogonalLoop=1;jettySize=auto;html=1;exitX=1;exitY=0.5;exitDx=0;exitDy=0;entryX=0;entryY=0.5;entryDx=0;entryDy=0;strokeColor=#FF3333;strokeWidth=2;fontSize=12;fontStyle=1;fontFamily=Times New Roman;" parent="1c1d494c118603dd-1" source="UKQ700S80o_2FQXmhF7d-53" target="UKQ700S80o_2FQXmhF7d-103" edge="1">
          <mxGeometry relative="1" as="geometry" />
        </mxCell>
        <mxCell id="UKQ700S80o_2FQXmhF7d-115" value="call" style="edgeStyle=orthogonalEdgeStyle;rounded=0;orthogonalLoop=1;jettySize=auto;html=1;exitX=1;exitY=0.5;exitDx=0;exitDy=0;entryX=0;entryY=0.5;entryDx=0;entryDy=0;strokeColor=#FF3333;strokeWidth=2;fontSize=12;fontStyle=1;fontFamily=Times New Roman;" parent="1c1d494c118603dd-1" source="UKQ700S80o_2FQXmhF7d-53" target="UKQ700S80o_2FQXmhF7d-111" edge="1">
          <mxGeometry relative="1" as="geometry" />
        </mxCell>
        <mxCell id="UKQ700S80o_2FQXmhF7d-116" value="call" style="edgeStyle=orthogonalEdgeStyle;rounded=0;orthogonalLoop=1;jettySize=auto;html=1;exitX=1;exitY=0.5;exitDx=0;exitDy=0;entryX=0;entryY=0.5;entryDx=0;entryDy=0;strokeColor=#FF3333;strokeWidth=2;fontSize=12;fontStyle=1;fontFamily=Times New Roman;" parent="1c1d494c118603dd-1" source="UKQ700S80o_2FQXmhF7d-53" target="UKQ700S80o_2FQXmhF7d-107" edge="1">
          <mxGeometry relative="1" as="geometry" />
        </mxCell>
        <mxCell id="V6kkqUvpd2kyLeAWoMDx-3" value="" style="shape=or;whiteSpace=wrap;html=1;rotation=-180;fillColor=#FF9933;fillStyle=zigzag-line;opacity=60;strokeWidth=2;" vertex="1" parent="1">
          <mxGeometry x="360" y="1780" width="90" height="120" as="geometry" />
        </mxCell>
        <mxCell id="V6kkqUvpd2kyLeAWoMDx-4" value="" style="whiteSpace=wrap;html=1;aspect=fixed;dashed=1;strokeWidth=4;perimeterSpacing=1;strokeColor=#FF0000;" vertex="1" parent="1">
          <mxGeometry x="580" y="1400" width="40" height="40" as="geometry" />
        </mxCell>
        <mxCell id="V6kkqUvpd2kyLeAWoMDx-5" value="" style="whiteSpace=wrap;html=1;aspect=fixed;dashed=1;strokeWidth=4;perimeterSpacing=1;strokeColor=#FF0000;" vertex="1" parent="1">
          <mxGeometry x="630" y="1495" width="30" height="30" as="geometry" />
        </mxCell>
        <mxCell id="V6kkqUvpd2kyLeAWoMDx-6" value="" style="whiteSpace=wrap;html=1;aspect=fixed;dashed=1;strokeWidth=4;perimeterSpacing=1;strokeColor=#FF0000;" vertex="1" parent="1">
          <mxGeometry x="670" y="1590" width="30" height="30" as="geometry" />
        </mxCell>
        <mxCell id="V6kkqUvpd2kyLeAWoMDx-8" value="" style="whiteSpace=wrap;html=1;aspect=fixed;dashed=1;strokeWidth=4;perimeterSpacing=1;strokeColor=#FF0000;" vertex="1" parent="1">
          <mxGeometry x="580" y="1770" width="30" height="30" as="geometry" />
        </mxCell>
        <mxCell id="V6kkqUvpd2kyLeAWoMDx-9" value="" style="whiteSpace=wrap;html=1;aspect=fixed;dashed=1;strokeWidth=4;perimeterSpacing=1;strokeColor=#FF0000;" vertex="1" parent="1">
          <mxGeometry x="430" y="1810" width="30" height="30" as="geometry" />
        </mxCell>
        <mxCell id="V6kkqUvpd2kyLeAWoMDx-13" value="Z" style="endArrow=classic;html=1;rounded=0;fontSize=21;fontStyle=1;labelPosition=left;verticalLabelPosition=top;align=right;verticalAlign=bottom;spacingLeft=23;spacingBottom=0;spacingRight=10;" edge="1" parent="1">
          <mxGeometry x="0.0014" width="50" height="50" relative="1" as="geometry">
            <mxPoint x="320" y="2010" as="sourcePoint" />
            <mxPoint x="320" y="1360" as="targetPoint" />
            <mxPoint as="offset" />
          </mxGeometry>
        </mxCell>
        <mxCell id="V6kkqUvpd2kyLeAWoMDx-16" value="R" style="endArrow=classic;html=1;rounded=0;fontSize=21;labelPosition=right;verticalLabelPosition=bottom;align=left;verticalAlign=top;fontStyle=1" edge="1" parent="1">
          <mxGeometry width="50" height="50" relative="1" as="geometry">
            <mxPoint x="240" y="1920" as="sourcePoint" />
            <mxPoint x="720" y="1920" as="targetPoint" />
          </mxGeometry>
        </mxCell>
        <mxCell id="V6kkqUvpd2kyLeAWoMDx-19" value="&lt;p class=&quot;MsoNormal&quot;&gt;&lt;span style=&quot;mso-spacerun:&#39;yes&#39;;font-family:&#39;Times New Roman Regular&#39;;mso-fareast-font-family:宋体;&lt;br/&gt;font-weight:normal;font-size:14.0000pt;mso-font-kerning:0.0000pt;&quot;&gt;Thomson scattering&amp;nbsp;&lt;/span&gt;&lt;span style=&quot;font-family: &amp;quot;Times New Roman Regular&amp;quot;; font-size: 14pt; text-align: justify; background-color: initial;&quot;&gt;receiver&lt;/span&gt;&lt;/p&gt;" style="whiteSpace=wrap;html=1;fillColor=#f5f5f5;strokeColor=#666666;fontColor=#333333;" vertex="1" parent="1">
          <mxGeometry x="770" y="1480" width="180" height="60" as="geometry" />
        </mxCell>
        <mxCell id="V6kkqUvpd2kyLeAWoMDx-20" value="" style="edgeStyle=orthogonalEdgeStyle;rounded=0;orthogonalLoop=1;jettySize=auto;html=1;exitX=0.5;exitY=1;exitDx=0;exitDy=0;jumpStyle=none;" edge="1" parent="1" source="V6kkqUvpd2kyLeAWoMDx-5" target="V6kkqUvpd2kyLeAWoMDx-19">
          <mxGeometry relative="1" as="geometry">
            <Array as="points">
              <mxPoint x="710" y="1526" />
              <mxPoint x="710" y="1510" />
            </Array>
          </mxGeometry>
        </mxCell>
        <mxCell id="V6kkqUvpd2kyLeAWoMDx-21" value="" style="endArrow=classic;html=1;rounded=0;exitX=0.006;exitY=1.002;exitDx=0;exitDy=0;exitPerimeter=0;" edge="1" parent="1" source="V6kkqUvpd2kyLeAWoMDx-1" target="V6kkqUvpd2kyLeAWoMDx-22">
          <mxGeometry width="50" height="50" relative="1" as="geometry">
            <mxPoint x="700" y="1670" as="sourcePoint" />
            <mxPoint x="510" y="1820" as="targetPoint" />
          </mxGeometry>
        </mxCell>
        <mxCell id="V6kkqUvpd2kyLeAWoMDx-22" value="X-point" style="rounded=0;whiteSpace=wrap;html=1;fontSize=21;fillColor=#f5f5f5;strokeColor=#666666;fontColor=#333333;" vertex="1" parent="1">
          <mxGeometry x="530" y="1810" width="120" height="60" as="geometry" />
        </mxCell>
        <mxCell id="V6kkqUvpd2kyLeAWoMDx-26" value="" style="shape=link;html=1;rounded=0;strokeColor=#3333FF;" edge="1" parent="1">
          <mxGeometry width="100" relative="1" as="geometry">
            <mxPoint x="610" y="1910" as="sourcePoint" />
            <mxPoint x="710" y="1820" as="targetPoint" />
          </mxGeometry>
        </mxCell>
        <mxCell id="V6kkqUvpd2kyLeAWoMDx-27" value="" style="shape=link;html=1;rounded=0;strokeColor=#3333FF;" edge="1" parent="1">
          <mxGeometry width="100" relative="1" as="geometry">
            <mxPoint x="710" y="1820" as="sourcePoint" />
            <mxPoint x="720" y="1430" as="targetPoint" />
          </mxGeometry>
        </mxCell>
        <mxCell id="V6kkqUvpd2kyLeAWoMDx-28" value="" style="shape=link;html=1;rounded=0;strokeColor=#3333FF;" edge="1" parent="1">
          <mxGeometry width="100" relative="1" as="geometry">
            <mxPoint x="350" y="1910" as="sourcePoint" />
            <mxPoint x="610" y="1910" as="targetPoint" />
          </mxGeometry>
        </mxCell>
        <mxCell id="V6kkqUvpd2kyLeAWoMDx-29" value="" style="shape=link;html=1;rounded=0;strokeColor=#3333FF;" edge="1" parent="1">
          <mxGeometry width="100" relative="1" as="geometry">
            <mxPoint x="350" y="1910" as="sourcePoint" />
            <mxPoint x="350" y="1340" as="targetPoint" />
          </mxGeometry>
        </mxCell>
        <mxCell id="V6kkqUvpd2kyLeAWoMDx-30" value="" style="shape=link;html=1;rounded=0;strokeColor=#3333FF;" edge="1" parent="1">
          <mxGeometry width="100" relative="1" as="geometry">
            <mxPoint x="350" y="1340" as="sourcePoint" />
            <mxPoint x="600" y="1340" as="targetPoint" />
          </mxGeometry>
        </mxCell>
        <mxCell id="V6kkqUvpd2kyLeAWoMDx-31" value="" style="shape=link;html=1;rounded=0;strokeColor=#3333FF;" edge="1" parent="1">
          <mxGeometry width="100" relative="1" as="geometry">
            <mxPoint x="600" y="1340" as="sourcePoint" />
            <mxPoint x="720" y="1430" as="targetPoint" />
          </mxGeometry>
        </mxCell>
        <mxCell id="V6kkqUvpd2kyLeAWoMDx-32" value="" style="endArrow=classic;html=1;rounded=0;exitX=0.938;exitY=0.737;exitDx=0;exitDy=0;exitPerimeter=0;" edge="1" parent="1" source="V6kkqUvpd2kyLeAWoMDx-1" target="V6kkqUvpd2kyLeAWoMDx-33">
          <mxGeometry width="50" height="50" relative="1" as="geometry">
            <mxPoint x="700" y="1670" as="sourcePoint" />
            <mxPoint x="750" y="1688" as="targetPoint" />
          </mxGeometry>
        </mxCell>
        <mxCell id="V6kkqUvpd2kyLeAWoMDx-33" value="&lt;font style=&quot;font-size: 21px;&quot;&gt;plasma boundary&lt;/font&gt;" style="rounded=0;whiteSpace=wrap;html=1;fillColor=#f5f5f5;strokeColor=#666666;fontColor=#333333;" vertex="1" parent="1">
          <mxGeometry x="760" y="1658" width="180" height="60" as="geometry" />
        </mxCell>
        <mxCell id="V6kkqUvpd2kyLeAWoMDx-46" style="edgeStyle=orthogonalEdgeStyle;rounded=0;orthogonalLoop=1;jettySize=auto;html=1;entryX=0.5;entryY=1;entryDx=0;entryDy=0;" edge="1" parent="1" source="V6kkqUvpd2kyLeAWoMDx-44" target="V6kkqUvpd2kyLeAWoMDx-45">
          <mxGeometry relative="1" as="geometry" />
        </mxCell>
        <mxCell id="V6kkqUvpd2kyLeAWoMDx-44" value="" style="shape=sumEllipse;perimeter=ellipsePerimeter;whiteSpace=wrap;html=1;backgroundOutline=1;" vertex="1" parent="1">
          <mxGeometry x="540" y="1590" width="20" height="20" as="geometry" />
        </mxCell>
        <mxCell id="V6kkqUvpd2kyLeAWoMDx-45" value="plasma center" style="rounded=0;whiteSpace=wrap;html=1;fillColor=#f5f5f5;strokeColor=#666666;fontColor=#333333;" vertex="1" parent="1">
          <mxGeometry x="500" y="1525" width="100" height="40" as="geometry" />
        </mxCell>
        <mxCell id="V6kkqUvpd2kyLeAWoMDx-48" value="" style="whiteSpace=wrap;html=1;aspect=fixed;dashed=1;strokeWidth=4;perimeterSpacing=1;strokeColor=#FF0000;" vertex="1" parent="1">
          <mxGeometry x="630" y="1700" width="30" height="30" as="geometry" />
        </mxCell>
      </root>
    </mxGraphModel>
  </diagram>
</mxfile>
